<svg width="38" height="38" viewBox="0 0 38 38" fill="none" xmlns="http://www.w3.org/2000/svg">
<rect width="38" height="38" rx="7" fill="black"/>
<path d="M11 25V19C11 18.6022 11.1686 18.2206 11.4686 17.9393C11.7687 17.658 12.1757 17.5 12.6 17.5M12.6 17.5H25.4M12.6 17.5V14.5C12.6 14.1022 12.7686 13.7206 13.0686 13.4393C13.3687 13.158 13.7757 13 14.2 13H23.8C24.2243 13 24.6313 13.158 24.9314 13.4393C25.2314 13.7206 25.4 14.1022 25.4 14.5V17.5M25.4 17.5C25.8243 17.5 26.2313 17.658 26.5314 17.9393C26.8314 18.2206 27 18.6022 27 19V25M19 13V17.5M11 23.5H27" stroke="white" stroke-width="2" stroke-linecap="round" stroke-linejoin="round"/>
</svg>
