<svg width="12" height="12" viewBox="0 0 12 12" fill="none" xmlns="http://www.w3.org/2000/svg">
<g clip-path="url(#clip0_199_13)">
<path d="M7.415 7.415C7.13521 7.69448 6.77884 7.88474 6.39094 7.96173C6.00303 8.03872 5.60102 7.99899 5.23569 7.84755C4.87037 7.69611 4.55814 7.43976 4.33848 7.11091C4.11882 6.78206 4.00157 6.39547 4.00157 6C4.00157 5.60453 4.11882 5.21794 4.33848 4.88909C4.55814 4.56024 4.87037 4.30389 5.23569 4.15245C5.60102 4.00101 6.00303 3.96128 6.39094 4.03827C6.77884 4.11526 7.13521 4.30552 7.415 4.585M11 6C11 8.76142 8.76142 11 6 11C3.23858 11 1 8.76142 1 6C1 3.23858 3.23858 1 6 1C8.76142 1 11 3.23858 11 6Z" stroke="white" stroke-linecap="round" stroke-linejoin="round"/>
</g>
<defs>
<clipPath id="clip0_199_13">
<rect width="12" height="12" fill="white"/>
</clipPath>
</defs>
</svg>
