<svg width="38" height="38" viewBox="0 0 38 38" fill="none" xmlns="http://www.w3.org/2000/svg">
<rect width="38" height="38" rx="7" fill="black"/>
<path d="M12.9987 24.002H24.9987M23.9987 28.002C24.2639 28.002 24.5182 27.8966 24.7058 27.7091C24.8933 27.5216 24.9987 27.2672 24.9987 27.002V21.652C24.9987 21.195 25.3147 20.808 25.7257 20.611C26.5767 20.205 27.2569 19.5115 27.6463 18.6529C28.0357 17.7942 28.1093 16.8256 27.8541 15.9179C27.5989 15.0103 27.0312 14.222 26.2514 13.6921C25.4715 13.1623 24.5295 12.9249 23.5917 13.022C23.2054 12.1242 22.5646 11.3593 21.7482 10.8218C20.9319 10.2844 19.976 9.99792 18.9987 9.99792C18.0213 9.99792 17.0654 10.2844 16.2491 10.8218C15.4328 11.3593 14.7919 12.1242 14.4057 13.022C13.4683 12.9256 12.5269 13.1633 11.7476 13.6931C10.9683 14.223 10.4011 15.0109 10.146 15.9181C9.89084 16.8252 9.96419 17.7934 10.3531 18.6517C10.742 19.5101 11.4214 20.2036 12.2717 20.61C12.6827 20.808 12.9987 21.195 12.9987 21.651V27.002C12.9987 27.2672 13.104 27.5216 13.2916 27.7091C13.4791 27.8966 13.7335 28.002 13.9987 28.002H23.9987Z" stroke="white" stroke-width="2" stroke-linecap="round" stroke-linejoin="round"/>
</svg>
