<svg width="38" height="38" viewBox="0 0 38 38" fill="none" xmlns="http://www.w3.org/2000/svg">
<rect width="38" height="38" rx="7" fill="black"/>
<path d="M24.7062 26.2938L22.9062 18.0938L26.4062 14.5938C27.9062 13.0938 28.4062 11.0938 27.9062 10.0938C26.9062 9.59375 24.9062 10.0938 23.4062 11.5938L19.9062 15.0938L11.7063 13.2937C11.2063 13.1937 10.8063 13.3937 10.6063 13.7937L10.3063 14.2937C10.1063 14.7937 10.2063 15.2937 10.6063 15.5938L15.9062 19.0938L13.9062 22.0938H10.9062L9.90625 23.0938L12.9062 25.0938L14.9062 28.0938L15.9062 27.0938V24.0938L18.9062 22.0938L22.4062 27.3937C22.7063 27.7937 23.2062 27.8938 23.7062 27.6938L24.2062 27.4937C24.6062 27.1937 24.8062 26.7938 24.7062 26.2938Z" stroke="white" stroke-width="2" stroke-linecap="round" stroke-linejoin="round"/>
</svg>
