<svg width="45" height="45" viewBox="0 0 45 45" fill="none" xmlns="http://www.w3.org/2000/svg">
<path d="M29.4024 31.3227L27.2251 21.4038L31.4588 17.1701C33.2732 15.3557 33.878 12.9364 33.2732 11.7268C32.0636 11.122 29.6443 11.7268 27.8299 13.5412L23.5962 17.7749L13.6773 15.5976C13.0725 15.4766 12.5887 15.7186 12.3467 16.2024L11.9838 16.8072C11.7419 17.412 11.8629 18.0168 12.3467 18.3797L18.7577 22.6134L16.3385 26.2423H12.7096L11.5 27.4519L15.1289 29.8711L17.5481 33.5L18.7577 32.2904V28.6615L22.3866 26.2423L26.6203 32.6533C26.9832 33.1371 27.588 33.2581 28.1928 33.0162L28.7976 32.7742C29.2814 32.4113 29.5234 31.9275 29.4024 31.3227Z" stroke="white" stroke-width="2" stroke-linecap="round" stroke-linejoin="round"/>
</svg>
